<svg width="18" height="13" viewBox="0 0 18 13" fill="none" xmlns="http://www.w3.org/2000/svg">
<g clip-path="url(#clip0_1_64)">
<path fill-rule="evenodd" clip-rule="evenodd" d="M9 0C4.909 0 1.391 2.686 0 6.5C1.391 10.313 4.909 12.999 9 12.999C13.091 12.999 16.609 10.313 18 6.5C16.609 2.686 13.091 0 9 0ZM9 10.833C6.709 10.833 4.909 8.926 4.909 6.5C4.909 4.073 6.709 2.166 9 2.166C11.291 2.166 13.091 4.073 13.091 6.5C13.091 8.926 11.291 10.833 9 10.833ZM9 3.9C7.609 3.9 6.545 5.026 6.545 6.5C6.545 7.973 7.609 9.1 9 9.1C10.391 9.1 11.455 7.973 11.455 6.5C11.455 5.026 10.391 3.9 9 3.9Z" fill="#9FA3A7"/>
</g>
<defs>
<clipPath id="clip0_1_64">
<rect width="18" height="13" fill="white"/>
</clipPath>
</defs>
</svg>
