<svg width="17" height="16" viewBox="0 0 17 16" fill="none" xmlns="http://www.w3.org/2000/svg">
<g clip-path="url(#clip0_1_39)">
<path fill-rule="evenodd" clip-rule="evenodd" d="M16.974 3.72299C16.974 3.94699 16.89 4.12199 16.751 4.23299L14.782 6.24999C14.652 6.38299 14.481 6.44999 14.311 6.44999C14.14 6.44999 13.97 6.38299 13.84 6.24999C13.58 5.98399 13.58 5.55199 13.84 5.28599L14.744 4.35999H13.047C12.663 4.35999 12.523 4.59399 12.301 4.91299L6.75098 12.87C6.27998 13.547 5.51298 13.951 4.69998 13.951H1.65898C1.29098 13.951 0.992981 13.646 0.992981 13.269C0.992981 12.893 1.29098 12.587 1.65898 12.587H4.69998C5.08298 12.587 5.44498 12.397 5.66698 12.078L8.18898 8.46199C8.16498 8.43699 8.13398 8.42399 8.11298 8.39499L5.66798 4.87699C5.45498 4.58599 5.38798 4.35999 5.01598 4.35999H1.66898C1.30198 4.35999 0.992981 4.09899 0.992981 3.72199C0.992981 3.34499 1.29098 3.03999 1.65898 3.03999H4.72698C5.51698 3.03999 6.27098 3.42599 6.74398 4.07399L8.99298 7.30899L11.217 4.12099C11.688 3.44399 12.455 3.03999 13.268 3.03999H14.701L13.841 2.15799C13.581 1.89199 13.581 1.45899 13.841 1.19399C14.101 0.926994 14.523 0.926994 14.783 1.19399L16.779 3.23899C16.84 3.30199 16.889 3.37799 16.923 3.46099C16.957 3.54499 16.974 3.63399 16.974 3.72299ZM10.942 10.28L12.288 12.109C12.51 12.408 12.863 12.587 13.233 12.587H14.725L13.863 11.705C13.603 11.439 13.603 11.008 13.863 10.741C14.124 10.475 14.545 10.475 14.805 10.741L16.803 12.787C17.063 13.054 17.063 13.485 16.803 13.751L14.806 15.797C14.676 15.93 14.506 15.997 14.336 15.997C14.165 15.997 13.995 15.93 13.865 15.797C13.605 15.532 13.605 15.099 13.865 14.833L14.725 13.951H13.233C12.45 13.951 11.699 13.571 11.226 12.932L9.87898 11.101C9.65698 10.8 9.71598 10.373 10.01 10.146C10.304 9.91899 10.721 9.98099 10.942 10.28Z" fill="#9FA3A7"/>
</g>
<defs>
<clipPath id="clip0_1_39">
<rect width="17" height="16" fill="white"/>
</clipPath>
</defs>
</svg>
